<svg xmlns="http://www.w3.org/2000/svg" width="285.857" height="569.133" viewBox="0 0 285.857 569.133">
    <defs>
        <style>
            .cls-1{fill:#fff}
        </style>
    </defs>
    <g id="Artboard_12" data-name="Artboard 12" transform="translate(-43.41 -17.847)">
        <path id="Path_47" d="M43.41 222.758v52.314l43.667-3.052-3.637-52.06z" class="cls-1" data-name="Path 47" transform="translate(0 311.908)"/>
        <path id="Path_48" d="M43.41 193.944v47.1l35.656-2.492-3.281-46.872z" class="cls-1" data-name="Path 48" transform="translate(0 268.266)"/>
        <path id="Path_49" d="M43.41 165.129v41.862l27.645-1.933-2.9-41.658z" class="cls-1" data-name="Path 49" transform="translate(0 224.623)"/>
        <path id="Rectangle_92" d="M0 0h52.187v52.187H0z" class="cls-1" data-name="Rectangle 92" transform="rotate(-44.03 695.056 14.585)"/>
        <path id="Rectangle_93" d="M0 0h46.974v46.974H0z" class="cls-1" data-name="Rectangle 93" transform="rotate(-44.03 604.345 47.452)"/>
        <path id="Rectangle_94" d="M0 0h41.76v41.76H0z" class="cls-1" data-name="Rectangle 94" transform="rotate(-44.03 513.635 80.344)"/>
        <path id="Rectangle_95" d="M0 0h52.187v52.187H0z" class="cls-1" data-name="Rectangle 95" transform="rotate(-84 331.016 24.64)"/>
        <path id="Rectangle_96" d="M0 0h46.974v46.974H0z" class="cls-1" data-name="Rectangle 96" transform="rotate(-84 289.568 59.314)"/>
        <path id="Rectangle_97" d="M0 0h41.76v41.76H0z" class="cls-1" data-name="Rectangle 97" transform="rotate(-84 248.15 94.014)"/>
        <path id="Rectangle_98" d="M0 0h52.187v52.187H0z" class="cls-1" data-name="Rectangle 98" transform="rotate(-34 353.306 -288.774)"/>
        <path id="Rectangle_99" d="M0 0h46.974v46.974H0z" class="cls-1" data-name="Rectangle 99" transform="rotate(-34 393.759 -171.779)"/>
        <path id="Rectangle_100" d="M0 0h41.76v41.76H0z" class="cls-1" data-name="Rectangle 100" transform="rotate(-34 434.128 -54.868)"/>
        <path id="Rectangle_101" d="M0 0h52.187v52.187H0z" class="cls-1" data-name="Rectangle 101" transform="rotate(-73.98 86.19 -20.464)"/>
        <path id="Rectangle_102" d="M0 0h46.974v46.974H0z" class="cls-1" data-name="Rectangle 102" transform="rotate(-73.98 124.084 26.188)"/>
        <path id="Rectangle_103" d="M0 0h41.76v41.76H0z" class="cls-1" data-name="Rectangle 103" transform="rotate(-73.98 161.966 72.858)"/>
    </g>
</svg>
