<svg xmlns="http://www.w3.org/2000/svg" width="260.96" height="74.35" viewBox="0 0 260.96 74.35">
    <defs>
        <style>
            .cls-1{fill:#4a4f55}.cls-2{fill:#12213a}
        </style>
    </defs>
    <g id="Group_2444" data-name="Group 2444" transform="translate(-.7 -.57)">
        <path id="Path_2275" d="M25.48 32.32h-6A5 5 0 0 0 17.94 29a5.65 5.65 0 0 0-4.19-1.43 6 6 0 0 0-5.2 2.55q-1.8 2.55-1.8 7.52c0 3.13.63 5.53 1.89 7.22a6.14 6.14 0 0 0 5.2 2.52 5.4 5.4 0 0 0 4.41-1.66 5.08 5.08 0 0 0 1.39-3.27h6a10.639 10.639 0 0 1-.88 3.55 11.725 11.725 0 0 1-2.05 3.2 9.233 9.233 0 0 1-3.56 2.38 13.917 13.917 0 0 1-5.14.89 14.23 14.23 0 0 1-5.48-1 10.811 10.811 0 0 1-3.83-2.54 13.071 13.071 0 0 1-2.36-3.58 17.123 17.123 0 0 1-1.29-3.94 21.391 21.391 0 0 1-.35-3.83 19.518 19.518 0 0 1 .72-5.33 17.264 17.264 0 0 1 2.22-4.79 10.6 10.6 0 0 1 4.19-3.58 15.192 15.192 0 0 1 11.67-.36 8.994 8.994 0 0 1 3.58 2.55 11.446 11.446 0 0 1 1.83 3.15 9.115 9.115 0 0 1 .58 3.09" class="cls-1" data-name="Path 2275"/>
        <path id="Path_2276" d="M46.92 49.3a12 12 0 0 1-15.84 0q-3-3-3-8.65t3-8.64a11.93 11.93 0 0 1 15.84 0q3 3 3 8.64t-3 8.65m-4.15-13.93a5 5 0 0 0-7.05-.49 3.781 3.781 0 0 0-.49.49 10.61 10.61 0 0 0 0 10.57 5 5 0 0 0 7.05.49 4.534 4.534 0 0 0 .49-.49q1.41-1.72 1.41-5.29c0-2.37-.47-4.14-1.41-5.28" class="cls-1" data-name="Path 2276"/>
        <path id="Path_2277" d="M72.42 52h-5.6V37.92a4.253 4.253 0 0 0-1-3.07 3.86 3.86 0 0 0-2.9-1.08 4.732 4.732 0 0 0-3.54 1.39 5.582 5.582 0 0 0-1.35 4V52h-5.6V29.29h5.47v2.4A7.919 7.919 0 0 1 64.37 29a8.3 8.3 0 0 1 5.93 2 7.15 7.15 0 0 1 2.11 5.47z" class="cls-1" data-name="Path 2277"/>
        <path id="Path_2278" d="M90.16 43.8h5.72a9.19 9.19 0 0 1-2.94 6.2 10.307 10.307 0 0 1-7.13 2.32 10.717 10.717 0 0 1-7.9-3q-3-3-3-8.5 0-5.76 3-8.79a11.841 11.841 0 0 1 14.84-.79 9.262 9.262 0 0 1 3.15 6.42h-5.74a4.605 4.605 0 0 0-1.34-2.94 4.238 4.238 0 0 0-3-1.08 4.6 4.6 0 0 0-3.75 1.72 8.343 8.343 0 0 0-1.39 5.29A8.526 8.526 0 0 0 82 45.94a4.439 4.439 0 0 0 3.67 1.72 4.59 4.59 0 0 0 3.06-1 4.1 4.1 0 0 0 1.41-2.84" class="cls-1" data-name="Path 2278"/>
        <path id="Path_2279" d="M113.83 44.42l5.68.13a8.474 8.474 0 0 1-3.13 5.64 12.4 12.4 0 0 1-15-.85q-3-3-3-8.56c0-3.74 1-6.63 3.09-8.69A10.782 10.782 0 0 1 109.4 29a9.528 9.528 0 0 1 7.71 3.26 12.722 12.722 0 0 1 2.73 8.48v1.2h-15.67a6.868 6.868 0 0 0 1.19 4 4.5 4.5 0 0 0 4 1.7 5.125 5.125 0 0 0 3-.85 3.738 3.738 0 0 0 1.55-2.39m-9.45-6.51H114a4.51 4.51 0 0 0-1.41-3.27 4.793 4.793 0 0 0-3.15-1 5.112 5.112 0 0 0-3.4 1.16 4.612 4.612 0 0 0-1.58 3.16" class="cls-1" data-name="Path 2279"/>
        <path id="Path_2280" d="M127.93 59h-5.6V29.29h5.6v2.45a6.9 6.9 0 0 1 2.67-2 8.48 8.48 0 0 1 3.5-.75 9.209 9.209 0 0 1 7.38 3c1.74 2 2.61 4.89 2.61 8.62s-.92 6.53-2.75 8.58A9.449 9.449 0 0 1 134 52.3a9.2 9.2 0 0 1-3.55-.69 5.679 5.679 0 0 1-2.5-1.88zm5.22-25.32a5.112 5.112 0 0 0-3.93 1.49q-1.41 1.481-1.41 5.51t1.41 5.51a5.157 5.157 0 0 0 3.93 1.5 4.71 4.71 0 0 0 3.8-1.72 8.19 8.19 0 0 0 1.43-5.29 8.159 8.159 0 0 0-1.38-5.31 4.681 4.681 0 0 0-3.8-1.72" class="cls-1" data-name="Path 2280"/>
        <path id="Path_2281" d="M158.93 47.2v4.73a4.768 4.768 0 0 0-.56.06l-.64.1a22.938 22.938 0 0 1-3 .12c-2.18 0-3.73-.4-4.64-1.22a5.267 5.267 0 0 1-1.37-4.08V34h-3.44v-4.71h3.44V23h5.6v6.3h5.1V34h-5.1v11.3a2.13 2.13 0 0 0 .44 1.61 3 3 0 0 0 1.84.38h1.58a3.66 3.66 0 0 0 .74 0" class="cls-1" data-name="Path 2281"/>
        <path id="Path_2282" d="M185.59 52h-5.68V40h-12.27v12h-5.72V23h5.72v11.81h12.27V23h5.68z" class="cls-1" data-name="Path 2282"/>
        <path id="Path_2283" d="M195 38.5l7.84-1.2v-.79a2.781 2.781 0 0 0-.87-2.2 5.2 5.2 0 0 0-3.24-.75q-4.3 0-4.31 3.11H189q0-7.67 9.9-7.67 9.53 0 9.53 7.3v12.52a15.248 15.248 0 0 0 .13 2.24l.16.95H203v-2.28a9.468 9.468 0 0 1-7 2.57 8.351 8.351 0 0 1-5.65-1.9 6.531 6.531 0 0 1-2.22-5.23q0-5.509 6.92-6.67m7.83 4.27v-1.2l-2.2.33-1.76.29-1.76.29a5.328 5.328 0 0 0-2.4.87 2.29 2.29 0 0 0-.87 1.87 2.5 2.5 0 0 0 .1.72 4.27 4.27 0 0 0 .39.87 2.006 2.006 0 0 0 1 .83 4.731 4.731 0 0 0 1.82.31 5.789 5.789 0 0 0 4.31-1.53 4.881 4.881 0 0 0 1.33-3.65" class="cls-1" data-name="Path 2283"/>
        <path id="Path_2284" d="M231.07 52h-5.47v-2.15a8.77 8.77 0 0 1-6.5 2.45 7.321 7.321 0 0 1-5.68-2.22 7.829 7.829 0 0 1-2-5.53V29.29H217v14.18q0 4.28 3.9 4.27a4.179 4.179 0 0 0 3.43-1.41 5.578 5.578 0 0 0 1.17-3.65V29.29h5.6z" class="cls-1" data-name="Path 2284"/>
        <path id="Path_2285" d="M252.8 36h-5.51q0-2.65-4-2.65a6.107 6.107 0 0 0-2.57.51 1.81 1.81 0 0 0-1.12 1.77 1.84 1.84 0 0 0 1.57 1.82c.33.11 1.65.34 3.94.68a17.411 17.411 0 0 1 5.1 1.39 5.609 5.609 0 0 1 3.19 5.31q0 7.5-10.15 7.5a15.736 15.736 0 0 1-4.27-.52 8.7 8.7 0 0 1-2.84-1.28 5.858 5.858 0 0 1-1.62-1.85 6.9 6.9 0 0 1-.79-2 8.482 8.482 0 0 1-.18-1.88h5.51c0 2 1.49 3.07 4.48 3.07 2.79 0 4.18-.85 4.18-2.53a1.689 1.689 0 0 0-.33-1.06 2.34 2.34 0 0 0-1.14-.7 8.808 8.808 0 0 0-1.43-.37c-.41-.07-1-.16-1.86-.27a22.385 22.385 0 0 1-4-.75q-5-1.45-5-6.22a5.851 5.851 0 0 1 2.7-5.11 11.6 11.6 0 0 1 6.81-1.86 14.081 14.081 0 0 1 4.23.58 8.206 8.206 0 0 1 2.76 1.42 6.239 6.239 0 0 1 1.54 1.82 7.065 7.065 0 0 1 .7 1.79 7.8 7.8 0 0 1 .1 1.39" class="cls-1" data-name="Path 2285"/>
        <path id="Path_2847" d="M173.7 9.48l-6 10.66H162l8.68-15.46h6l8.82 15.46h-5.61L173.7 9.48" class="cls-1" data-name="Path 2847"/>
        <path id="Line_1" d="M5.68 0H0" class="cls-2" data-name="Line 1" transform="translate(162 20.14)"/>
        <path id="Rectangle_6" d="M261.66 52.22h-6.13v-6.14h6.13" class="cls-1" data-name="Rectangle 6"/>
        <g id="Group_36" data-name="Group 36">
            <path id="Path_2287" d="M43.87 63.71H47v11.21h-3.1v-1.08h1.85v-9h-1.88z" class="cls-1" data-name="Path 2287"/>
            <path id="Path_2288" d="M63.52 67h-1.46a1.82 1.82 0 0 0-1.96-1.674h-.095a2.205 2.205 0 0 0-1.15.29 1.879 1.879 0 0 0-.75.78 3.906 3.906 0 0 0-.39 1 5.292 5.292 0 0 0-.13 1.19A4.207 4.207 0 0 0 58.25 71a2 2 0 0 0 1.86.94 1.9 1.9 0 0 0 1.37-.47 2 2 0 0 0 .59-1.2h1.47a3.808 3.808 0 0 1-.1.59 3.278 3.278 0 0 1-.31.75 2.728 2.728 0 0 1-.59.76 3.1 3.1 0 0 1-1 .57 4.54 4.54 0 0 1-3.08-.06 3.175 3.175 0 0 1-1.14-.78 4.016 4.016 0 0 1-.7-1.1 4.951 4.951 0 0 1-.37-1.2 6.445 6.445 0 0 1-.1-1.16 6.657 6.657 0 0 1 .12-1.26 4.848 4.848 0 0 1 .4-1.22 3.726 3.726 0 0 1 .71-1.05 3.148 3.148 0 0 1 1.13-.73 4.185 4.185 0 0 1 1.57-.27 3.759 3.759 0 0 1 1.45.25 2.943 2.943 0 0 1 1 .59 3.187 3.187 0 0 1 .58.78 3.118 3.118 0 0 1 .3.73 3.212 3.212 0 0 1 .11.54z" class="cls-1" data-name="Path 2288"/>
            <path id="Path_2289" d="M67.57 64.21h3.77a2.92 2.92 0 0 1 2 .68 2.259 2.259 0 0 1 .17 3.18 2.175 2.175 0 0 1-.93.62 1.619 1.619 0 0 1 .93.57 1.869 1.869 0 0 1 .39 1.11 8.981 8.981 0 0 0 .32 2.63h-1.47a11.078 11.078 0 0 1-.16-2.3 1.406 1.406 0 0 0-.34-1 1.548 1.548 0 0 0-1.08-.33H69V73h-1.43zm1.38 4h2a2 2 0 0 0 1.32-.39 1.257 1.257 0 0 0 .45-1 1.227 1.227 0 0 0-.44-1 1.925 1.925 0 0 0-1.23-.36H69z" class="cls-1" data-name="Path 2289"/>
            <path id="Path_2290" d="M84.36 73h-5.94v-8.79h5.86v1.23H79.8v2.5h4.29v1.23H79.8v2.6h4.56z" class="cls-1" data-name="Path 2290"/>
            <path id="Path_2291" d="M93.2 70.85h-3.35L89.22 73h-1.46l2.81-8.79h2L95.38 73h-1.49zm-.33-1.2l-1.35-4.37-1.33 4.37z" class="cls-1" data-name="Path 2291"/>
            <path id="Path_2292" d="M104.25 65.44h-2.64V73h-1.38v-7.56h-2.64v-1.23h6.66z" class="cls-1" data-name="Path 2292"/>
            <path id="Path_2293" d="M109.47 64.21V73h-1.38v-8.79z" class="cls-1" data-name="Path 2293"/>
            <path id="Path_2294" d="M117.07 71.92l2.23-7.71h1.4L118 73h-2l-2.69-8.79h1.48z" class="cls-1" data-name="Path 2294"/>
            <path id="Path_2295" d="M130.52 73h-5.94v-8.79h5.86v1.23H126v2.5h4.29v1.23H126v2.6h4.56z" class="cls-1" data-name="Path 2295"/>
            <path id="Path_2296" d="M147.07 67h-1.47a1.82 1.82 0 0 0-1.95-1.67h-.06a2.149 2.149 0 0 0-1.14.29 2 2 0 0 0-.76.78 3.905 3.905 0 0 0-.39 1 5.946 5.946 0 0 0-.12 1.19 4.206 4.206 0 0 0 .61 2.35 2.059 2.059 0 0 0 1.86.94 1.81 1.81 0 0 0 1.994-1.6c0-.022 0-.043.006-.065h1.47a2.943 2.943 0 0 1-.09.59 3.31 3.31 0 0 1-.32.75 2.889 2.889 0 0 1-.58.76 3.158 3.158 0 0 1-1 .57 4.382 4.382 0 0 1-1.44.24 4.327 4.327 0 0 1-1.63-.3 3.133 3.133 0 0 1-1.15-.78 4.211 4.211 0 0 1-.7-1.1 4.95 4.95 0 0 1-.37-1.2 7.516 7.516 0 0 1-.09-1.16 6.737 6.737 0 0 1 .11-1.26 4.848 4.848 0 0 1 .4-1.22 3.781 3.781 0 0 1 .72-1.05 3.1 3.1 0 0 1 1.12-.73 4.239 4.239 0 0 1 1.58-.27 3.82 3.82 0 0 1 1.45.25 3 3 0 0 1 1 .59 3.213 3.213 0 0 1 .59.78 4.3 4.3 0 0 1 .3.73 5.239 5.239 0 0 1 .05.595z" class="cls-1" data-name="Path 2296"/>
            <path id="Path_2297" d="M156.7 73h-5.59v-8.79h1.38v7.56h4.21z" class="cls-1" data-name="Path 2297"/>
            <path id="Path_2298" d="M161.82 64.21v5.56a2.179 2.179 0 0 0 .55 1.6 2.389 2.389 0 0 0 3.06 0 2.17 2.17 0 0 0 .57-1.57v-5.59h1.33v5.55a3.23 3.23 0 0 1-1 2.53 3.619 3.619 0 0 1-2.49.85 3.568 3.568 0 0 1-2.48-.86 3.362 3.362 0 0 1-.94-2.59v-5.48z" class="cls-1" data-name="Path 2298"/>
            <path id="Path_2299" d="M177.81 66.73h-1.41a1.78 1.78 0 0 0-.45-1.1 1.854 1.854 0 0 0-1.38-.41 2.29 2.29 0 0 0-1.37.35 1.14 1.14 0 0 0-.45 1 1 1 0 0 0 .47.89 3.49 3.49 0 0 0 1 .35l1.26.26a7.348 7.348 0 0 1 1.19.35 2.084 2.084 0 0 1 .94.72 2.161 2.161 0 0 1 .36 1.26 2.529 2.529 0 0 1-.89 2 3.945 3.945 0 0 1-2.59.74 3.808 3.808 0 0 1-2.34-.69 2.478 2.478 0 0 1-.95-2.07h1.43c0 1 .7 1.57 2 1.57a2.688 2.688 0 0 0 1.36-.33 1.129 1.129 0 0 0 .58-1.06 1 1 0 0 0-.64-1 9.55 9.55 0 0 0-1.58-.4 8.724 8.724 0 0 1-1.73-.48 2.079 2.079 0 0 1-1.25-2.08 2.17 2.17 0 0 1 .49-1.42 2.667 2.667 0 0 1 1.19-.85 4.6 4.6 0 0 1 1.52-.25 3.783 3.783 0 0 1 2.35.67 2.448 2.448 0 0 1 .89 1.98z" class="cls-1" data-name="Path 2299"/>
            <path id="Path_2300" d="M187.88 65.44h-2.64V73h-1.38v-7.56h-2.64v-1.23h6.66z" class="cls-1" data-name="Path 2300"/>
            <path id="Path_2301" d="M197.66 73h-5.94v-8.79h5.87v1.23h-4.49v2.5h4.3v1.23h-4.3v2.6h4.56z" class="cls-1" data-name="Path 2301"/>
            <path id="Path_2302" d="M201.82 64.21h3.76a2.888 2.888 0 0 1 2 .68 2.249 2.249 0 0 1-.75 3.8 1.647 1.647 0 0 1 .93.57 1.8 1.8 0 0 1 .38 1.11 9.007 9.007 0 0 0 .29 2.63H207a11.079 11.079 0 0 1-.16-2.3 1.406 1.406 0 0 0-.34-1 1.558 1.558 0 0 0-1.08-.33h-2.22V73h-1.38zm1.38 4h2a2 2 0 0 0 1.32-.39 1.291 1.291 0 0 0 .45-1 1.227 1.227 0 0 0-.44-1 1.925 1.925 0 0 0-1.23-.36h-2.1z" class="cls-1" data-name="Path 2302"/>
            <path id="Path_2303" d="M217.78 63.71h3.1v1.08H219v9h1.85v1.08h-3.1z" class="cls-1" data-name="Path 2303"/>
        </g>
        <g id="Group_2436" data-name="Group 2436">
            <path id="Path_2848" d="M.75 1.091h4.03a2.909 2.909 0 0 1 2.08.8 2.794 2.794 0 0 1 .84 2.124 2.964 2.964 0 0 1-.741 2.067 3.208 3.208 0 0 1-2.483.988H2.544v3.12H.75zm1.794 4.432h1.677a1.6 1.6 0 0 0 1.229-.416 1.478 1.478 0 0 0 .383-1.04 1.435 1.435 0 0 0-.377-1.033 1.582 1.582 0 0 0-1.2-.4H2.544z" class="cls-1" data-name="Path 2848"/>
        </g>
        <g id="Group_2437" data-name="Group 2437">
            <path id="Path_2849" d="M14.062 9.339a3.341 3.341 0 0 1-2.483.942A3.34 3.34 0 0 1 9.1 9.339a3.683 3.683 0 0 1-.936-2.71A3.686 3.686 0 0 1 9.1 3.918a3.344 3.344 0 0 1 2.483-.943 3.346 3.346 0 0 1 2.483.943A3.686 3.686 0 0 1 15 6.629a3.683 3.683 0 0 1-.938 2.71zm-1.3-4.369a1.568 1.568 0 0 0-2.366 0 2.589 2.589 0 0 0-.442 1.659 2.581 2.581 0 0 0 .446 1.657 1.568 1.568 0 0 0 2.366 0 2.581 2.581 0 0 0 .434-1.657 2.589 2.589 0 0 0-.438-1.659z" class="cls-1" data-name="Path 2849"/>
        </g>
        <g id="Group_2438" data-name="Group 2438">
            <path id="Path_2850" d="M21.695 3.066l1.352 5.122 1.365-5.122h1.833l-2.028 7.124h-2.158l-1.209-4.8-1.209 4.8h-2.158l-2.028-7.124h1.833l1.365 5.122L20 3.066z" class="cls-1" data-name="Path 2850"/>
        </g>
        <g id="Group_2439" data-name="Group 2439">
            <path id="Path_2851" d="M31.349 7.811l1.781.039a2.65 2.65 0 0 1-.982 1.768 3.393 3.393 0 0 1-2.19.663 3.432 3.432 0 0 1-2.5-.93 3.569 3.569 0 0 1-.958-2.684 3.684 3.684 0 0 1 .968-2.723 3.375 3.375 0 0 1 2.49-.969A2.983 2.983 0 0 1 32.376 4a3.991 3.991 0 0 1 .858 2.658v.377H28.32a2.153 2.153 0 0 0 .37 1.261 1.407 1.407 0 0 0 1.242.533 1.585 1.585 0 0 0 .929-.267 1.173 1.173 0 0 0 .488-.751zM28.385 5.77h2.99a1.41 1.41 0 0 0-.442-1.027 1.5 1.5 0 0 0-.988-.325 1.594 1.594 0 0 0-1.066.364 1.434 1.434 0 0 0-.494.988z" class="cls-1" data-name="Path 2851"/>
        </g>
        <g id="Group_2440" data-name="Group 2440">
            <path id="Path_2852" d="M38.4 4.834h-.494q-1.808 0-1.807 1.56v3.8h-1.754V3.066h1.69v1.053a1.88 1.88 0 0 1 1.846-1.053h.52z" class="cls-1" data-name="Path 2852"/>
        </g>
        <g id="Group_2441" data-name="Group 2441">
            <path id="Path_2853" d="M43.7 7.811l1.781.039a2.653 2.653 0 0 1-.981 1.768 3.4 3.4 0 0 1-2.191.663 3.432 3.432 0 0 1-2.5-.93 3.569 3.569 0 0 1-.956-2.684 3.684 3.684 0 0 1 .968-2.723 3.375 3.375 0 0 1 2.49-.969A2.983 2.983 0 0 1 44.726 4a3.991 3.991 0 0 1 .858 2.658v.377H40.67a2.147 2.147 0 0 0 .371 1.261 1.4 1.4 0 0 0 1.241.533 1.583 1.583 0 0 0 .929-.267 1.173 1.173 0 0 0 .489-.751zM40.735 5.77h2.99a1.41 1.41 0 0 0-.442-1.027 1.5 1.5 0 0 0-.988-.325 1.594 1.594 0 0 0-1.066.364 1.434 1.434 0 0 0-.494.988z" class="cls-1" data-name="Path 2853"/>
            <path id="Path_2854" d="M53.188 10.19h-1.754v-.715a1.793 1.793 0 0 1-.807.592 3 3 0 0 1-1.13.214 2.893 2.893 0 0 1-2.282-.962 3.92 3.92 0 0 1-.851-2.69 3.914 3.914 0 0 1 .858-2.672 2.932 2.932 0 0 1 2.327-.982 2.5 2.5 0 0 1 1.072.234 2.227 2.227 0 0 1 .813.624V.57h1.754zm-3.393-5.759a1.472 1.472 0 0 0-1.189.539 2.564 2.564 0 0 0-.448 1.659 2.556 2.556 0 0 0 .448 1.657 1.472 1.472 0 0 0 1.189.539 1.619 1.619 0 0 0 1.236-.468 2.546 2.546 0 0 0 .442-1.728 2.554 2.554 0 0 0-.442-1.73 1.623 1.623 0 0 0-1.236-.468z" class="cls-1" data-name="Path 2854"/>
        </g>
        <g id="Group_2442" data-name="Group 2442">
            <path id="Path_2855" d="M59.11 10.19h-1.755V.57h1.755v3.263a2.188 2.188 0 0 1 .839-.624 2.675 2.675 0 0 1 1.1-.234 2.892 2.892 0 0 1 2.314.95 4.014 4.014 0 0 1 .819 2.7 3.88 3.88 0 0 1-.865 2.69 2.946 2.946 0 0 1-2.307.962 2.858 2.858 0 0 1-1.112-.214 1.8 1.8 0 0 1-.786-.592zm1.638-5.759a1.62 1.62 0 0 0-1.235.468 2.548 2.548 0 0 0-.442 1.73 2.54 2.54 0 0 0 .442 1.728 1.617 1.617 0 0 0 1.235.468 1.472 1.472 0 0 0 1.19-.539 2.556 2.556 0 0 0 .448-1.657 2.564 2.564 0 0 0-.448-1.659 1.472 1.472 0 0 0-1.19-.539z" class="cls-1" data-name="Path 2855"/>
        </g>
        <g id="Group_2443" data-name="Group 2443">
            <path id="Path_2856" d="M64.947 12.686v-1.534H66a.826.826 0 0 0 .455-.1.665.665 0 0 0 .234-.391l.13-.468-2.444-7.127h1.937l1.482 4.953 1.482-4.953h1.833l-2.678 7.944a3.174 3.174 0 0 1-.731 1.29 1.84 1.84 0 0 1-1.281.389z" class="cls-1" data-name="Path 2856"/>
        </g>
    </g>
</svg>
