<svg xmlns="http://www.w3.org/2000/svg" width="712.916" height="204.917" viewBox="0 0 712.916 204.917">
    <defs>
        <style>
            .cls-1{fill:#fff}
        </style>
    </defs>
    <g id="Group_1" data-name="Group 1" transform="translate(-1213.011 -204.089)">
        <path id="Rectangle_104" d="M0 0h14.191v14.191H0z" class="cls-1" data-name="Rectangle 104" transform="translate(1284.216 204.089)"/>
        <path id="Rectangle_105" d="M0 0h12.768v12.773H0z" class="cls-1" data-name="Rectangle 105" transform="translate(1284.925 225.157)"/>
        <path id="Rectangle_106" d="M0 0h11.354v11.354H0z" class="cls-1" data-name="Rectangle 106" transform="translate(1285.634 246.226)"/>
        <path id="Rectangle_107" d="M0 0h14.19v14.186H0z" class="cls-1" data-name="Rectangle 107" transform="rotate(-39.989 929.448 -1584.791)"/>
        <path id="Rectangle_108" d="M0 0h12.769v12.769H0z" class="cls-1" data-name="Rectangle 108" transform="rotate(-40 957.57 -1595.333)"/>
        <path id="Rectangle_109" d="M0 0h11.351v11.352H0z" class="cls-1" data-name="Rectangle 109" transform="rotate(-40 986.149 -1606.84)"/>
        <path id="Rectangle_110" d="M0 0h14.188v14.191H0z" class="cls-1" data-name="Rectangle 110" transform="rotate(-80.04 770.433 -584.86)"/>
        <path id="Rectangle_111" d="M0 0h12.768v12.771H0z" class="cls-1" data-name="Rectangle 111" transform="rotate(-80.013 782.762 -596.128)"/>
        <path id="Rectangle_112" d="M0 0h11.351v11.352H0z" class="cls-1" data-name="Rectangle 112" transform="rotate(-80.04 794.829 -606.756)"/>
        <path id="Rectangle_113" d="M0 0h14.187v14.191H0z" class="cls-1" data-name="Rectangle 113" transform="rotate(-29.992 1197.098 -2119.964)"/>
        <path id="Rectangle_114" d="M0 0h12.769v12.772H0z" class="cls-1" data-name="Rectangle 114" transform="rotate(-29.992 1187.88 -2159.644)"/>
        <path id="Rectangle_115" d="M0 0h11.35v11.354H0z" class="cls-1" data-name="Rectangle 115" transform="rotate(-29.99 1178.703 -2199.486)"/>
        <path id="Rectangle_116" d="M0 0h14.188v14.189H0z" class="cls-1" data-name="Rectangle 116" transform="rotate(-70.004 880.56 -721.656)"/>
        <path id="Rectangle_117" d="M0 0h12.772v12.773H0z" class="cls-1" data-name="Rectangle 117" transform="rotate(-69.998 870.557 -737.156)"/>
        <path id="Rectangle_118" d="M0 0h11.352v11.35H0z" class="cls-1" data-name="Rectangle 118" transform="rotate(-70 860.252 -752.19)"/>
        <path id="Rectangle_119" d="M0 0h14.189v14.188H0z" class="cls-1" data-name="Rectangle 119" transform="rotate(-19.996 1629.392 -3531.977)"/>
        <path id="Rectangle_120" d="M0 0h12.772v12.772H0z" class="cls-1" data-name="Rectangle 120" transform="rotate(-20.002 1573.023 -3523.02)"/>
        <path id="Rectangle_121" d="M0 0h11.352v11.35H0z" class="cls-1" data-name="Rectangle 121" transform="rotate(-19.994 1517.312 -3516.718)"/>
        <path id="Rectangle_122" d="M0 0h14.187v14.191H0z" class="cls-1" data-name="Rectangle 122" transform="rotate(-60 948.532 -1002.66)"/>
        <path id="Rectangle_123" d="M0 0h12.769v12.772H0z" class="cls-1" data-name="Rectangle 123" transform="rotate(-60 931.161 -993.45)"/>
        <path id="Rectangle_124" d="M0 0h11.35v11.354H0z" class="cls-1" data-name="Rectangle 124" transform="rotate(-60.011 913.699 -983.978)"/>
        <path id="Rectangle_125" d="M0 0h14.188v14.191H0z" class="cls-1" data-name="Rectangle 125" transform="rotate(-9.989 2187.346 -7606.607)"/>
        <path id="Rectangle_126" d="M0 0h12.771v12.772H0z" class="cls-1" data-name="Rectangle 126" transform="rotate(-10.009 2198.187 -7479.218)"/>
        <path id="Rectangle_127" d="M0 0h11.352v11.349H0z" class="cls-1" data-name="Rectangle 127" transform="rotate(-9.985 2215.797 -7385.502)"/>
        <path id="Rectangle_128" d="M0 0h14.19v14.19H0z" class="cls-1" data-name="Rectangle 128" transform="rotate(-49.98 908.521 -1308.617)"/>
        <path id="Rectangle_129" d="M0 0h12.769v12.769H0z" class="cls-1" data-name="Rectangle 129" transform="rotate(-49.98 919.112 -1287.905)"/>
        <path id="Rectangle_130" d="M0 0h11.352v11.352H0z" class="cls-1" data-name="Rectangle 130" transform="rotate(-49.98 929.704 -1267.188)"/>
        <path id="Path_50" d="M1256.768 279.608a15.566 15.566 0 0 0 5.119 6.106 21.412 21.412 0 0 0 7.705 3.259 44.209 44.209 0 0 0 9.519.982 26.71 26.71 0 0 0 6.306-.828 22.047 22.047 0 0 0 6.363-2.632 16.411 16.411 0 0 0 4.914-4.657 11.843 11.843 0 0 0 1.963-6.882 10.116 10.116 0 0 0-1.4-5.382 12.688 12.688 0 0 0-3.619-3.819 21.369 21.369 0 0 0-4.914-2.539 48.168 48.168 0 0 0-5.273-1.6l-16.448-4.035a47.949 47.949 0 0 1-6.255-2.077 17.626 17.626 0 0 1-5.325-3.3 15.58 15.58 0 0 1-3.675-5.068 17.337 17.337 0 0 1-1.393-7.345 23.264 23.264 0 0 1 1.033-6.307 17.5 17.5 0 0 1 3.875-6.826 22.568 22.568 0 0 1 7.813-5.428q4.97-2.23 12.724-2.23a36.887 36.887 0 0 1 10.444 1.449 25.523 25.523 0 0 1 8.692 4.343 20.866 20.866 0 0 1 8.167 17.167h-7.032a17.143 17.143 0 0 0-1.912-7.4 16.537 16.537 0 0 0-4.451-5.274 19.432 19.432 0 0 0-6.307-3.207 25.6 25.6 0 0 0-7.5-1.09 31.11 31.11 0 0 0-6.98.776 17.586 17.586 0 0 0-5.9 2.483 12.864 12.864 0 0 0-4.087 4.5 14.1 14.1 0 0 0-1.552 6.934 10.65 10.65 0 0 0 .879 4.5 9.4 9.4 0 0 0 2.431 3.259 12.553 12.553 0 0 0 3.567 2.169 26.829 26.829 0 0 0 4.292 1.352l18 4.446a52.264 52.264 0 0 1 7.4 2.534 24.326 24.326 0 0 1 6.1 3.721 15.869 15.869 0 0 1 4.138 5.428 18.286 18.286 0 0 1 1.5 7.756 28.864 28.864 0 0 1-.262 3.321 16.635 16.635 0 0 1-1.238 4.389 22.044 22.044 0 0 1-2.8 4.708 17.487 17.487 0 0 1-4.965 4.287 28.421 28.421 0 0 1-7.807 3.11 45.939 45.939 0 0 1-11.169 1.187 46.7 46.7 0 0 1-12.1-1.5 26.242 26.242 0 0 1-9.515-4.605 20.237 20.237 0 0 1-6.049-7.967 26.11 26.11 0 0 1-1.809-11.683h7.031a20.8 20.8 0 0 0 1.758 9.509" class="cls-1" data-name="Path 50" transform="translate(144.601 61.742)"/>
        <path id="Path_51" d="M1271.876 219.087v46.393a36.368 36.368 0 0 0 1.47 11.076 18.428 18.428 0 0 0 4.3 7.448 16.605 16.605 0 0 0 6.928 4.2 30.082 30.082 0 0 0 9.236 1.311 30.462 30.462 0 0 0 9.34-1.311 16.608 16.608 0 0 0 6.928-4.2 18.443 18.443 0 0 0 4.308-7.448 36.532 36.532 0 0 0 1.465-11.076v-46.393h7.139v47.965a36.413 36.413 0 0 1-1.624 10.968 23.5 23.5 0 0 1-14.166 15.22 35.3 35.3 0 0 1-13.384 2.261 34.938 34.938 0 0 1-13.275-2.261 24.252 24.252 0 0 1-9.031-6.137 23.964 23.964 0 0 1-5.14-9.082 36.438 36.438 0 0 1-1.629-10.968v-47.966z" class="cls-1" data-name="Path 51" transform="translate(214.137 62.09)"/>
        <path id="Path_52" d="M1289.091 219.133l44.383 64.444h.215v-64.444h7.253v76.178h-8.105l-44.388-64.444h-.211v64.444h-7.252v-76.178z" class="cls-1" data-name="Path 52" transform="translate(281.406 62.282)"/>
        <path id="Path_53" d="M1358.674 219.19v14.032h-40.065v16.258h36.771v12.968h-36.771v18.6h40.919v14.032h-57.608v-75.89z" class="cls-1" data-name="Path 53" transform="translate(368.068 62.517)"/>
        <path id="Path_54" d="M1369.2 240.479a16.394 16.394 0 0 0-3.623-4.086 16.614 16.614 0 0 0-4.909-2.74 16.828 16.828 0 0 0-5.741-.982 18.956 18.956 0 0 0-9.309 2.118 17.582 17.582 0 0 0-6.209 5.69 24.992 24.992 0 0 0-3.464 8.121 40.358 40.358 0 0 0-1.084 9.411 37.54 37.54 0 0 0 1.084 9.051 24.532 24.532 0 0 0 3.464 7.91 17.78 17.78 0 0 0 6.209 5.638 18.956 18.956 0 0 0 9.309 2.117q7.439 0 11.637-4.549a21.057 21.057 0 0 0 5.119-12h15.723a37.666 37.666 0 0 1-3.206 12.522 30.071 30.071 0 0 1-6.826 9.514 29.028 29.028 0 0 1-9.93 6 36.315 36.315 0 0 1-12.516 2.071 37.884 37.884 0 0 1-15.255-2.95 32.661 32.661 0 0 1-11.431-8.121 35.794 35.794 0 0 1-7.134-12.151 44.467 44.467 0 0 1-2.483-15.05 46 46 0 0 1 2.483-15.358 36.762 36.762 0 0 1 7.134-12.361 32.647 32.647 0 0 1 11.431-8.275 39.628 39.628 0 0 1 26.79-1.239 31.229 31.229 0 0 1 9.719 5.119 27.646 27.646 0 0 1 7.088 8.327 29.771 29.771 0 0 1 3.515 11.375h-15.723a13.366 13.366 0 0 0-1.861-5.119" class="cls-1" data-name="Path 54" transform="translate(437.232 61.813)"/>
        <path id="Path_55" d="M1354.883 267.062a24.427 24.427 0 0 0 3.469 7.91 17.655 17.655 0 0 0 6.2 5.638 21.47 21.47 0 0 0 18.617 0 17.712 17.712 0 0 0 6.208-5.638 24.418 24.418 0 0 0 3.465-7.91 37.568 37.568 0 0 0 1.084-9.051 40.423 40.423 0 0 0-1.084-9.411 25.026 25.026 0 0 0-3.465-8.121 17.707 17.707 0 0 0-6.208-5.69 21.517 21.517 0 0 0-18.617 0 17.651 17.651 0 0 0-6.2 5.69 25.035 25.035 0 0 0-3.469 8.121 40.66 40.66 0 0 0-1.085 9.411 37.79 37.79 0 0 0 1.085 9.051m-14.84-24.409a36.955 36.955 0 0 1 7.135-12.361 32.718 32.718 0 0 1 11.431-8.275 40.474 40.474 0 0 1 30.567 0 32.879 32.879 0 0 1 11.375 8.275 36.853 36.853 0 0 1 7.139 12.361 46.125 46.125 0 0 1 2.483 15.358 44.566 44.566 0 0 1-2.483 15.05 35.907 35.907 0 0 1-7.139 12.156 32.893 32.893 0 0 1-11.375 8.121 41.131 41.131 0 0 1-30.567 0 32.735 32.735 0 0 1-11.431-8.121 36 36 0 0 1-7.135-12.156 44.6 44.6 0 0 1-2.482-15.05 46.156 46.156 0 0 1 2.482-15.358" class="cls-1" data-name="Path 55" transform="translate(515.626 61.809)"/>
        <path id="Path_56" d="M1229.515 238.959v2.817h-13.158v7.987h11.543v2.811h-11.539v11.508h-3.346v-25.123z" class="cls-1" data-name="Path 56" transform="translate(0 144.357)"/>
        <path id="Rectangle_131" d="M0 0h3.341v25.124H0z" class="cls-1" data-name="Rectangle 131" transform="translate(1248.837 383.317)"/>
        <path id="Path_57" d="M1228.288 238.959l13.23 20.375h.071v-20.375h3.167v25.124h-3.656l-13.127-20.164h-.067v20.164h-3.171v-25.124z" class="cls-1" data-name="Path 57" transform="translate(48.52 144.357)"/>
        <path id="Path_58" d="M1247.918 253.705l-4.189-11.724h-.071l-4.256 11.724zm-2.323-14.746l9.818 25.124h-3.7l-2.745-7.566h-10.624l-2.817 7.566h-3.412l9.781-25.124z" class="cls-1" data-name="Path 58" transform="translate(79.102 144.358)"/>
        <path id="Path_59" d="M1243.692 238.959l13.23 20.375h.071v-20.375h3.167v25.124h-3.66l-13.127-20.164h-.067v20.164h-3.171v-25.124z" class="cls-1" data-name="Path 59" transform="translate(112.292 144.357)"/>
        <path id="Path_60" d="M1264.275 242.991a7.778 7.778 0 0 0-4.553-1.336 8.2 8.2 0 0 0-3.855.843 7.638 7.638 0 0 0-2.642 2.272 9.88 9.88 0 0 0-1.532 3.254 14.786 14.786 0 0 0-.488 3.8 16.494 16.494 0 0 0 .488 4.061 9.8 9.8 0 0 0 1.532 3.346 7.654 7.654 0 0 0 2.657 2.272 8.306 8.306 0 0 0 3.871.843 7.441 7.441 0 0 0 2.94-.545 6.624 6.624 0 0 0 2.216-1.516 6.96 6.96 0 0 0 1.459-2.3 9.6 9.6 0 0 0 .632-2.885h3.341a11.4 11.4 0 0 1-3.274 7.391 10.587 10.587 0 0 1-7.6 2.642 12.019 12.019 0 0 1-5.1-1.007 10.019 10.019 0 0 1-3.624-2.76 11.841 11.841 0 0 1-2.169-4.153 17.769 17.769 0 0 1-.72-5.135 16.682 16.682 0 0 1 .776-5.16 12.348 12.348 0 0 1 2.266-4.2 10.606 10.606 0 0 1 3.732-2.837 12.076 12.076 0 0 1 5.119-1.033 12.841 12.841 0 0 1 3.731.524 10.222 10.222 0 0 1 3.136 1.547 8.748 8.748 0 0 1 2.282 2.555 9.358 9.358 0 0 1 1.2 3.536h-3.341a6.223 6.223 0 0 0-2.483-4.014" class="cls-1" data-name="Path 60" transform="translate(144.265 143.878)"/>
        <path id="Rectangle_132" d="M0 0h3.341v25.124H0z" class="cls-1" data-name="Rectangle 132" transform="translate(1434.382 383.317)"/>
        <path id="Path_61" d="M1276.064 253.705l-4.189-11.724h-.067l-4.261 11.724zm-2.323-14.746l9.817 25.124h-3.69l-2.75-7.566h-10.624l-2.816 7.566h-3.413l9.781-25.124z" class="cls-1" data-name="Path 61" transform="translate(195.619 144.358)"/>
        <path id="Path_62" d="M1272.876 238.959l7.915 21.115 7.957-21.115h4.574v25.124h-3.166v-20.9h-.072l-7.849 20.9h-2.852l-7.843-20.9h-.072v20.9h-3.168v-25.124z" class="cls-1" data-name="Path 62" transform="translate(228.895 144.357)"/>
        <path id="Rectangle_133" d="M0 0h3.346v25.124H0z" class="cls-1" data-name="Rectangle 133" transform="translate(1543.4 383.317)"/>
        <path id="Path_63" d="M1299.4 238.959v2.817h-14.006v7.987h13.056v2.811h-13.056v8.7h14.106v2.812h-17.449v-25.127z" class="cls-1" data-name="Path 63" transform="translate(285.807 144.357)"/>
        <path id="Path_64" d="M1292.789 238.959l13.229 20.375h.072v-20.375h3.167v25.124h-3.66l-13.127-20.164h-.067v20.164h-3.166v-25.124z" class="cls-1" data-name="Path 64" transform="translate(315.568 144.357)"/>
        <path id="Path_65" d="M1296.678 241.775v-2.816h20.1v2.816h-8.378v22.312h-3.346v-22.312z" class="cls-1" data-name="Path 65" transform="translate(346.374 144.355)"/>
        <path id="Path_66" d="M1307.7 255.748a10.075 10.075 0 0 0 1.552 3.326 7.814 7.814 0 0 0 2.708 2.375 9.078 9.078 0 0 0 7.879 0 7.923 7.923 0 0 0 2.714-2.375 10.28 10.28 0 0 0 1.547-3.326 14.614 14.614 0 0 0 0-7.494 10.328 10.328 0 0 0-1.547-3.326 7.921 7.921 0 0 0-2.714-2.375 9.077 9.077 0 0 0-7.879 0 7.812 7.812 0 0 0-2.708 2.375 10.121 10.121 0 0 0-1.552 3.326 14.6 14.6 0 0 0 0 7.494m-3.079-8.692a12.416 12.416 0 0 1 2.272-4.2 11.041 11.041 0 0 1 3.762-2.919 13.17 13.17 0 0 1 10.491 0 11.15 11.15 0 0 1 3.763 2.919 12.4 12.4 0 0 1 2.267 4.2 16.447 16.447 0 0 1 0 9.889 12.359 12.359 0 0 1-2.267 4.2 10.92 10.92 0 0 1-3.763 2.9 13.343 13.343 0 0 1-10.491 0 10.815 10.815 0 0 1-3.762-2.9 12.371 12.371 0 0 1-2.272-4.2 16.551 16.551 0 0 1 0-9.889" class="cls-1" data-name="Path 66" transform="translate(376.135 143.878)"/>
        <path id="Path_67" d="M1322.987 258.37a3.943 3.943 0 0 0 1.208 1.424 5.276 5.276 0 0 0 1.778.812 8.5 8.5 0 0 0 2.113.262 11.014 11.014 0 0 0 1.588-.123 5.615 5.615 0 0 0 1.578-.473 3.549 3.549 0 0 0 1.238-.971 2.437 2.437 0 0 0 .489-1.562 2.234 2.234 0 0 0-.648-1.655 5.309 5.309 0 0 0-1.712-1.054 16.8 16.8 0 0 0-2.385-.74c-.9-.211-1.794-.447-2.719-.7a24.6 24.6 0 0 1-2.74-.863 9.359 9.359 0 0 1-2.395-1.321 5.949 5.949 0 0 1-2.36-4.96 6.65 6.65 0 0 1 .828-3.362 7.54 7.54 0 0 1 2.164-2.375 9.576 9.576 0 0 1 3.028-1.408 12.927 12.927 0 0 1 3.376-.452 16.066 16.066 0 0 1 3.789.437 9.518 9.518 0 0 1 3.218 1.424 7.257 7.257 0 0 1 2.23 2.518 7.72 7.72 0 0 1 .827 3.711h-5.35a4.416 4.416 0 0 0-.468-1.866 3.179 3.179 0 0 0-1.08-1.162 4.432 4.432 0 0 0-1.531-.6 9.239 9.239 0 0 0-1.882-.18 6.6 6.6 0 0 0-1.336.144 3.613 3.613 0 0 0-1.213.493 2.935 2.935 0 0 0-.9.879 2.435 2.435 0 0 0-.354 1.336 2.328 2.328 0 0 0 .283 1.2 2.58 2.58 0 0 0 1.109.843 13.546 13.546 0 0 0 2.288.776q1.456.385 3.818.987c.474.093 1.116.262 1.953.509a9.4 9.4 0 0 1 2.483 1.177 7.624 7.624 0 0 1 2.127 2.164 6.185 6.185 0 0 1 .9 3.469 7.669 7.669 0 0 1-.674 3.2 6.947 6.947 0 0 1-1.989 2.549 9.466 9.466 0 0 1-3.269 1.67 15.6 15.6 0 0 1-4.523.6 15.942 15.942 0 0 1-4.03-.514 10.168 10.168 0 0 1-3.449-1.6 7.933 7.933 0 0 1-2.375-2.781 8.272 8.272 0 0 1-.843-4.009h5.346a4.556 4.556 0 0 0 .462 2.143" class="cls-1" data-name="Path 67" transform="translate(431.236 143.878)"/>
        <path id="Path_68" d="M1330.475 255.183a8.167 8.167 0 0 0 1.182 2.693 6.054 6.054 0 0 0 2.107 1.917 7.291 7.291 0 0 0 6.338 0 6.025 6.025 0 0 0 2.113-1.917 8.3 8.3 0 0 0 1.177-2.693 12.72 12.72 0 0 0 .37-3.074 13.775 13.775 0 0 0-.37-3.207 8.513 8.513 0 0 0-1.177-2.76 6.03 6.03 0 0 0-2.113-1.938 7.337 7.337 0 0 0-6.338 0 6.06 6.06 0 0 0-2.107 1.938 8.378 8.378 0 0 0-1.182 2.76 13.773 13.773 0 0 0-.365 3.207 12.718 12.718 0 0 0 .365 3.074m-5.047-8.3a12.609 12.609 0 0 1 2.426-4.2 11.166 11.166 0 0 1 3.891-2.817 13.789 13.789 0 0 1 10.4 0 11.143 11.143 0 0 1 3.871 2.817 12.618 12.618 0 0 1 2.431 4.2 15.789 15.789 0 0 1 .843 5.227 15.206 15.206 0 0 1-.843 5.114 12.257 12.257 0 0 1-2.431 4.138 11.212 11.212 0 0 1-3.871 2.765 13.983 13.983 0 0 1-10.4 0 11.236 11.236 0 0 1-3.891-2.765 12.248 12.248 0 0 1-2.426-4.138 15.058 15.058 0 0 1-.844-5.114 15.636 15.636 0 0 1 .844-5.227" class="cls-1" data-name="Path 68" transform="translate(461.902 143.878)"/>
        <path id="Path_69" d="M1338.208 238.959v20.477h12.243v4.646h-17.769v-25.123z" class="cls-1" data-name="Path 69" transform="translate(495.427 144.357)"/>
        <path id="Path_70" d="M1354.918 254.368l-3.171-9.216h-.067l-3.274 9.216zm-.318-15.409l9.4 25.124h-5.737l-1.9-5.6h-9.4l-1.968 5.6h-5.562l9.5-25.124z" class="cls-1" data-name="Path 70" transform="translate(523.371 144.358)"/>
        <path id="Path_71" d="M1359.078 250.323a4.17 4.17 0 0 0 2.853-.843 3.5 3.5 0 0 0 .95-2.745 3.357 3.357 0 0 0-.95-2.657 4.251 4.251 0 0 0-2.853-.827h-6.049v7.072zm1.974-11.364a8.16 8.16 0 0 1 3.042.545 7.062 7.062 0 0 1 2.323 1.5 6.5 6.5 0 0 1 1.475 2.2 7.049 7.049 0 0 1 .514 2.693 7.6 7.6 0 0 1-.93 3.834 5.873 5.873 0 0 1-3.048 2.462v.072a4.311 4.311 0 0 1 1.691.863 4.728 4.728 0 0 1 1.09 1.372 6.431 6.431 0 0 1 .617 1.742 14.984 14.984 0 0 1 .262 1.9c.025.4.046.869.071 1.408s.067 1.09.124 1.655a11.607 11.607 0 0 0 .282 1.6 3.7 3.7 0 0 0 .576 1.285h-5.52a9.484 9.484 0 0 1-.56-2.848 47.188 47.188 0 0 0-.319-3.166 5 5 0 0 0-1.2-2.889 4.133 4.133 0 0 0-2.992-.915h-5.525v9.817h-5.525v-25.13z" class="cls-1" data-name="Path 71" transform="translate(556.785 144.358)"/>
    </g>
</svg>
