<svg xmlns="http://www.w3.org/2000/svg" width="192.254" height="55.705" viewBox="0 0 192.254 55.705">
    <defs>
        <style>
            .cls-1{fill:#2b3fe9}.cls-2{fill:#0000ca}.cls-3{fill:#00f}.cls-4{fill:#000053}
        </style>
    </defs>
    <g id="logo" transform="translate(-278.297 -235.962)">
        <path id="Rectangle_31" d="M0 0h3.732v3.732H0z" class="cls-1" data-name="Rectangle 31" transform="translate(296.968 235.962)"/>
        <path id="Rectangle_32" d="M0 0h3.359v3.359H0z" class="cls-2" data-name="Rectangle 32" transform="translate(297.155 241.504)"/>
        <path id="Rectangle_33" d="M0 0h2.986v2.986H0z" class="cls-3" data-name="Rectangle 33" transform="translate(297.341 247.046)"/>
        <path id="Rectangle_34" d="M0 0h3.732v3.732H0z" class="cls-4" data-name="Rectangle 34" transform="rotate(-40 474.283 -269.435)"/>
        <path id="Rectangle_35" d="M0 0h3.359v3.359H0z" class="cls-1" data-name="Rectangle 35" transform="rotate(-40 481.964 -272.525)"/>
        <path id="Rectangle_36" d="M0 0h2.986v2.985H0z" class="cls-1" data-name="Rectangle 36" transform="rotate(-40 489.318 -275.488)"/>
        <path id="Rectangle_37" d="M0 0h3.733v3.733H0z" class="cls-3" data-name="Rectangle 37" transform="rotate(-80.003 290.89 -38.489)"/>
        <path id="Rectangle_38" d="M0 0h3.359v3.359H0z" class="cls-2" data-name="Rectangle 38" transform="rotate(-79.98 294.082 -41.423)"/>
        <path id="Rectangle_39" d="M0 0h2.986v2.986H0z" class="cls-1" data-name="Rectangle 39" transform="rotate(-79.992 297.337 -44.286)"/>
        <path id="Rectangle_40" d="M0 0h3.732v3.732H0z" class="cls-4" data-name="Rectangle 40" transform="rotate(-30 634.574 -390.098)"/>
        <path id="Rectangle_41" d="M0 0h3.36v3.359H0z" class="cls-1" data-name="Rectangle 41" transform="rotate(-30 632.151 -400.534)"/>
        <path id="Rectangle_42" d="M0 0h2.986v2.986H0z" class="cls-2" data-name="Rectangle 42" transform="rotate(-30 629.73 -410.968)"/>
        <path id="Rectangle_43" d="M0 0h3.732v3.733H0z" class="cls-2" data-name="Rectangle 43" transform="rotate(-69.997 341.382 -69.557)"/>
        <path id="Rectangle_44" d="M0 0h3.359v3.359H0z" class="cls-3" data-name="Rectangle 44" transform="rotate(-69.995 338.752 -73.616)"/>
        <path id="Rectangle_45" d="M0 0h2.986v2.986H0z" class="cls-1" data-name="Rectangle 45" transform="rotate(-70.006 336.075 -77.624)"/>
        <path id="Rectangle_46" d="M0 0h3.732v3.732H0z" class="cls-1" data-name="Rectangle 46" transform="rotate(-19.994 925.24 -722.19)"/>
        <path id="Rectangle_47" d="M0 0h3.359v3.36H0z" class="cls-4" data-name="Rectangle 47" transform="rotate(-20.005 910.06 -719.652)"/>
        <path id="Rectangle_48" d="M0 0h2.986v2.986H0z" class="cls-2" data-name="Rectangle 48" transform="rotate(-19.995 895.695 -718.033)"/>
        <path id="Rectangle_49" d="M0 0h3.732v3.732H0z" class="cls-4" data-name="Rectangle 49" transform="rotate(-60 386.935 -137.237)"/>
        <path id="Rectangle_50" d="M0 0h3.359v3.36H0z" class="cls-2" data-name="Rectangle 50" transform="rotate(-60.007 382.333 -134.776)"/>
        <path id="Rectangle_51" d="M0 0h2.986v2.986H0z" class="cls-1" data-name="Rectangle 51" transform="rotate(-60 377.806 -132.389)"/>
        <path id="Rectangle_52" d="M0 0h3.733v3.733H0z" class="cls-2" data-name="Rectangle 52" transform="rotate(-9.997 1596.669 -1674.638)"/>
        <path id="Rectangle_53" d="M0 0h3.359v3.359H0z" class="cls-4" data-name="Rectangle 53" transform="rotate(-9.995 1600.61 -1645.544)"/>
        <path id="Rectangle_54" d="M0 0h2.986v2.986H0z" class="cls-1" data-name="Rectangle 54" transform="rotate(-10.02 1600.527 -1611.668)"/>
        <path id="Rectangle_55" d="M0 0h3.732v3.732H0z" class="cls-4" data-name="Rectangle 55" transform="rotate(-49.999 414.05 -209.203)"/>
        <path id="Rectangle_56" d="M0 0h3.359v3.359H0z" class="cls-1" data-name="Rectangle 56" transform="rotate(-50 416.829 -203.748)"/>
        <path id="Rectangle_57" d="M0 0h2.986v2.986H0z" class="cls-1" data-name="Rectangle 57" transform="rotate(-49.98 419.637 -198.415)"/>
        <path id="Path_3" d="M329.038 269a4.167 4.167 0 0 0 1.367 1.63 5.713 5.713 0 0 0 2.057.869 11.746 11.746 0 0 0 2.54.262 7.206 7.206 0 0 0 1.685-.22 5.9 5.9 0 0 0 1.7-.7 4.344 4.344 0 0 0 1.313-1.241 3.148 3.148 0 0 0 .525-1.836 2.688 2.688 0 0 0-.373-1.436 3.4 3.4 0 0 0-.966-1.022 5.7 5.7 0 0 0-1.312-.676 12.738 12.738 0 0 0-1.408-.428l-4.39-1.077a13.077 13.077 0 0 1-1.671-.553 4.741 4.741 0 0 1-1.422-.883 4.184 4.184 0 0 1-.98-1.353 4.624 4.624 0 0 1-.373-1.961 6.264 6.264 0 0 1 .276-1.684 4.679 4.679 0 0 1 1.035-1.822 6.035 6.035 0 0 1 2.085-1.45 8.371 8.371 0 0 1 3.4-.594 9.907 9.907 0 0 1 2.789.387 6.883 6.883 0 0 1 2.319 1.159 5.582 5.582 0 0 1 2.181 4.584h-1.877a4.57 4.57 0 0 0-.511-1.974 4.421 4.421 0 0 0-1.187-1.408 5.214 5.214 0 0 0-1.685-.856 6.845 6.845 0 0 0-2-.29 8.275 8.275 0 0 0-1.864.207 4.664 4.664 0 0 0-1.574.663 3.421 3.421 0 0 0-1.09 1.2 3.769 3.769 0 0 0-.414 1.85 2.863 2.863 0 0 0 .234 1.2 2.55 2.55 0 0 0 .649.87 3.4 3.4 0 0 0 .953.579 7.064 7.064 0 0 0 1.146.359l4.8 1.188a13.953 13.953 0 0 1 1.974.676 6.554 6.554 0 0 1 1.629 1 4.206 4.206 0 0 1 1.1 1.449 4.86 4.86 0 0 1 .4 2.071 7.734 7.734 0 0 1-.069.884 4.45 4.45 0 0 1-.332 1.173 5.888 5.888 0 0 1-.745 1.256 4.671 4.671 0 0 1-1.326 1.146 7.647 7.647 0 0 1-2.084.829 12.225 12.225 0 0 1-2.982.317 12.423 12.423 0 0 1-3.231-.4 6.969 6.969 0 0 1-2.541-1.229 5.413 5.413 0 0 1-1.615-2.126 6.975 6.975 0 0 1-.483-3.12h1.878a5.545 5.545 0 0 0 .469 2.54" data-name="Path 3"/>
        <path id="Path_4" d="M351.735 253.236v12.205a9.569 9.569 0 0 0 .386 2.912 4.878 4.878 0 0 0 1.132 1.961 4.369 4.369 0 0 0 1.823 1.1 7.919 7.919 0 0 0 2.43.346 8.016 8.016 0 0 0 2.457-.346 4.357 4.357 0 0 0 1.823-1.1 4.878 4.878 0 0 0 1.132-1.961 9.6 9.6 0 0 0 .386-2.912v-12.205h1.878v12.619a9.609 9.609 0 0 1-.428 2.885 6.335 6.335 0 0 1-1.353 2.389 6.432 6.432 0 0 1-2.375 1.615 10.646 10.646 0 0 1-7.013 0 6.432 6.432 0 0 1-2.375-1.615 6.322 6.322 0 0 1-1.353-2.389 9.609 9.609 0 0 1-.428-2.885v-12.619z" data-name="Path 4"/>
        <path id="Path_5" d="M376.006 253.236l11.487 16.678h.055v-16.678h1.878v19.715h-2.1l-11.486-16.678h-.054v16.678h-1.878v-19.715z" data-name="Path 5"/>
        <path id="Path_6" d="M418.474 253.236v3.645h-10.41v4.224h9.554v3.369h-9.554v4.832H418.7v3.645h-14.971v-19.715z" data-name="Path 6"/>
        <path id="Path_7" d="M439.238 258.5a4.394 4.394 0 0 0-.967-1.09 4.509 4.509 0 0 0-2.843-.993 5.056 5.056 0 0 0-2.486.565 4.692 4.692 0 0 0-1.656 1.518 6.642 6.642 0 0 0-.925 2.169 10.737 10.737 0 0 0-.29 2.511 9.988 9.988 0 0 0 .29 2.416 6.5 6.5 0 0 0 .925 2.113 4.732 4.732 0 0 0 1.656 1.505 5.067 5.067 0 0 0 2.486.567 4.012 4.012 0 0 0 3.106-1.216 5.623 5.623 0 0 0 1.367-3.2h4.2a10.019 10.019 0 0 1-.856 3.34 8.021 8.021 0 0 1-1.823 2.541 7.754 7.754 0 0 1-2.65 1.6 9.694 9.694 0 0 1-3.341.552 10.091 10.091 0 0 1-4.074-.787 8.737 8.737 0 0 1-3.051-2.168 9.608 9.608 0 0 1-1.9-3.243 11.911 11.911 0 0 1-.662-4.019 12.3 12.3 0 0 1 .662-4.1 9.852 9.852 0 0 1 1.9-3.3 8.71 8.71 0 0 1 3.051-2.209 10.585 10.585 0 0 1 7.153-.331 8.3 8.3 0 0 1 2.6 1.367 7.385 7.385 0 0 1 1.891 2.222 7.957 7.957 0 0 1 .939 3.037h-4.2a3.563 3.563 0 0 0-.5-1.367" data-name="Path 7"/>
        <path id="Path_8" d="M455.792 265.592a6.53 6.53 0 0 0 .925 2.113 4.735 4.735 0 0 0 1.657 1.505 5.738 5.738 0 0 0 4.97 0A4.744 4.744 0 0 0 465 267.7a6.551 6.551 0 0 0 .925-2.113 10.042 10.042 0 0 0 .29-2.415 10.808 10.808 0 0 0-.29-2.513A6.68 6.68 0 0 0 465 258.5a4.707 4.707 0 0 0-1.657-1.519 5.747 5.747 0 0 0-4.97 0 4.7 4.7 0 0 0-1.657 1.519 6.658 6.658 0 0 0-.925 2.168 10.808 10.808 0 0 0-.29 2.513 10.042 10.042 0 0 0 .29 2.415m-3.962-6.516a9.872 9.872 0 0 1 1.9-3.3 8.717 8.717 0 0 1 3.051-2.209 10.8 10.8 0 0 1 8.16 0 8.755 8.755 0 0 1 3.037 2.209 9.855 9.855 0 0 1 1.9 3.3 12.316 12.316 0 0 1 .663 4.1 11.9 11.9 0 0 1-.663 4.017 9.592 9.592 0 0 1-1.9 3.245 8.766 8.766 0 0 1-3.037 2.167 10.969 10.969 0 0 1-8.16 0 8.729 8.729 0 0 1-3.051-2.167 9.608 9.608 0 0 1-1.9-3.245 11.9 11.9 0 0 1-.663-4.017 12.316 12.316 0 0 1 .663-4.1" data-name="Path 8"/>
        <path id="Path_9" d="M284.2 284.938v.737h-3.45v2.093h3.023v.737h-3.023v3.014h-.876v-6.581z" data-name="Path 9"/>
        <path id="Rectangle_58" d="M0 0h.876v6.581H0z" data-name="Rectangle 58" transform="translate(289.257 284.938)"/>
        <path id="Path_10" d="M296.584 284.938l3.466 5.336h.018v-5.336h.829v6.581h-.958l-3.438-5.282h-.018v5.282h-.83v-6.581z" data-name="Path 10"/>
        <path id="Path_11" d="M309.736 288.8l-1.1-3.07h-.018l-1.115 3.07zm-.608-3.862l2.571 6.581h-.967l-.719-1.982h-2.784l-.737 1.982h-.892l2.562-6.581z" data-name="Path 11"/>
        <path id="Path_12" d="M317.322 284.938l3.466 5.336h.018v-5.336h.829v6.581h-.958l-3.438-5.282h-.018v5.282h-.83v-6.581z" data-name="Path 12"/>
        <path id="Path_13" d="M331.087 285.869a2.039 2.039 0 0 0-1.194-.35 2.142 2.142 0 0 0-1.009.221 1.99 1.99 0 0 0-.691.6 2.555 2.555 0 0 0-.4.852 3.815 3.815 0 0 0-.129 1 4.261 4.261 0 0 0 .129 1.064 2.534 2.534 0 0 0 .4.876 1.967 1.967 0 0 0 .7.594 2.155 2.155 0 0 0 1.013.221 1.958 1.958 0 0 0 .77-.142 1.76 1.76 0 0 0 .581-.4 1.83 1.83 0 0 0 .382-.6 2.5 2.5 0 0 0 .166-.755h.876a2.989 2.989 0 0 1-.857 1.935 2.777 2.777 0 0 1-1.992.692 3.175 3.175 0 0 1-1.336-.263 2.615 2.615 0 0 1-.949-.724 3.11 3.11 0 0 1-.567-1.087 4.643 4.643 0 0 1-.189-1.346 4.4 4.4 0 0 1 .2-1.35 3.246 3.246 0 0 1 .594-1.1 2.77 2.77 0 0 1 .977-.742 3.144 3.144 0 0 1 1.341-.272 3.383 3.383 0 0 1 .977.138 2.624 2.624 0 0 1 .821.4 2.29 2.29 0 0 1 .6.668 2.451 2.451 0 0 1 .313.927h-.875a1.632 1.632 0 0 0-.65-1.051" data-name="Path 13"/>
        <path id="Rectangle_59" d="M0 0h.876v6.581H0z" data-name="Rectangle 59" transform="translate(337.857 284.938)"/>
        <path id="Path_14" d="M347.627 288.8l-1.1-3.07h-.018l-1.109 3.07zm-.608-3.862l2.571 6.581h-.967l-.719-1.982h-2.784l-.737 1.982h-.894l2.562-6.581z" data-name="Path 14"/>
        <path id="Path_15" d="M355.507 284.938l2.074 5.53 2.083-5.53h1.2v6.581h-.829v-5.475h-.019l-2.055 5.475h-.747l-2.055-5.475h-.019v5.475h-.829v-6.581z" data-name="Path 15"/>
        <path id="Rectangle_60" d="M0 0h.876v6.581H0z" data-name="Rectangle 60" transform="translate(366.411 284.938)"/>
        <path id="Path_16" d="M377.361 284.938v.737h-3.669v2.093h3.42v.737h-3.42v2.277h3.7v.737h-4.571v-6.581z" data-name="Path 16"/>
        <path id="Path_17" d="M383.425 284.938l3.466 5.336h.018v-5.336h.829v6.581h-.958l-3.438-5.282h-.018v5.282h-.83v-6.581z" data-name="Path 17"/>
        <path id="Path_18" d="M392.513 285.675v-.737h5.263v.737h-2.194v5.843h-.875v-5.843z" data-name="Path 18"/>
        <path id="Path_19" d="M403.2 289.21a2.685 2.685 0 0 0 .4.871 2.073 2.073 0 0 0 .71.622 2.384 2.384 0 0 0 2.064 0 2.073 2.073 0 0 0 .71-.622 2.667 2.667 0 0 0 .406-.871 3.8 3.8 0 0 0 0-1.963 2.663 2.663 0 0 0-.406-.872 2.084 2.084 0 0 0-.71-.622 2.384 2.384 0 0 0-2.064 0 2.084 2.084 0 0 0-.71.622 2.681 2.681 0 0 0-.4.872 3.77 3.77 0 0 0 0 1.963m-.807-2.277a3.257 3.257 0 0 1 .6-1.1 2.889 2.889 0 0 1 .986-.765 3.439 3.439 0 0 1 2.746 0 2.884 2.884 0 0 1 .987.765 3.255 3.255 0 0 1 .594 1.1 4.313 4.313 0 0 1 0 2.59 3.255 3.255 0 0 1-.594 1.1 2.837 2.837 0 0 1-.987.761 3.5 3.5 0 0 1-2.746 0 2.843 2.843 0 0 1-.986-.761 3.257 3.257 0 0 1-.6-1.1 4.334 4.334 0 0 1 0-2.59" data-name="Path 19"/>
        <path id="Path_20" d="M421.26 289.9a1.043 1.043 0 0 0 .318.373 1.379 1.379 0 0 0 .465.213 2.257 2.257 0 0 0 .553.068 2.813 2.813 0 0 0 .415-.032 1.438 1.438 0 0 0 .415-.124.926.926 0 0 0 .323-.253.644.644 0 0 0 .128-.411.575.575 0 0 0-.17-.433 1.358 1.358 0 0 0-.447-.277 4.575 4.575 0 0 0-.627-.193c-.233-.056-.47-.117-.709-.184a6.331 6.331 0 0 1-.719-.226 2.435 2.435 0 0 1-.627-.346 1.632 1.632 0 0 1-.447-.53 1.6 1.6 0 0 1-.171-.769 1.721 1.721 0 0 1 .217-.881 1.963 1.963 0 0 1 .567-.622 2.445 2.445 0 0 1 .793-.368 3.361 3.361 0 0 1 .884-.12 4.176 4.176 0 0 1 .991.115 2.476 2.476 0 0 1 .844.373 1.9 1.9 0 0 1 .585.659 2.029 2.029 0 0 1 .216.972h-1.4a1.17 1.17 0 0 0-.124-.488.825.825 0 0 0-.281-.3 1.2 1.2 0 0 0-.4-.157 2.451 2.451 0 0 0-.493-.046 1.675 1.675 0 0 0-.351.037.968.968 0 0 0-.318.129.818.818 0 0 0-.235.23.625.625 0 0 0-.092.351.592.592 0 0 0 .074.313.653.653 0 0 0 .29.221 3.647 3.647 0 0 0 .6.2c.254.068.588.154 1 .258.124.025.294.069.512.134a2.445 2.445 0 0 1 .65.308 1.985 1.985 0 0 1 .558.567 1.623 1.623 0 0 1 .235.909 2.007 2.007 0 0 1-.176.838 1.824 1.824 0 0 1-.52.668 2.5 2.5 0 0 1-.858.438 4.034 4.034 0 0 1-1.184.157 4.15 4.15 0 0 1-1.055-.134 2.65 2.65 0 0 1-.9-.419 2.073 2.073 0 0 1-.623-.728 2.185 2.185 0 0 1-.221-1.051h1.4a1.2 1.2 0 0 0 .12.562" data-name="Path 20"/>
        <path id="Path_21" d="M431.45 289.062a2.172 2.172 0 0 0 .308.706 1.581 1.581 0 0 0 .553.5 1.917 1.917 0 0 0 1.66 0 1.587 1.587 0 0 0 .552-.5 2.152 2.152 0 0 0 .309-.706 3.319 3.319 0 0 0 .1-.806 3.58 3.58 0 0 0-.1-.839 2.2 2.2 0 0 0-.309-.723 1.572 1.572 0 0 0-.552-.507 1.917 1.917 0 0 0-1.66 0 1.567 1.567 0 0 0-.553.507 2.217 2.217 0 0 0-.308.723 3.58 3.58 0 0 0-.1.839 3.319 3.319 0 0 0 .1.806m-1.323-2.175a3.281 3.281 0 0 1 .636-1.1 2.909 2.909 0 0 1 1.018-.738 3.607 3.607 0 0 1 2.724 0 2.931 2.931 0 0 1 1.014.738 3.3 3.3 0 0 1 .636 1.1 4.1 4.1 0 0 1 .221 1.369 3.963 3.963 0 0 1-.221 1.341 3.225 3.225 0 0 1-.636 1.083 2.948 2.948 0 0 1-1.014.724 3.671 3.671 0 0 1-2.724 0 2.926 2.926 0 0 1-1.018-.724 3.208 3.208 0 0 1-.636-1.083 3.963 3.963 0 0 1-.221-1.341 4.1 4.1 0 0 1 .221-1.369" data-name="Path 21"/>
        <path id="Path_22" d="M442.865 284.938v5.362h3.207v1.217h-4.654v-6.581z" data-name="Path 22"/>
        <path id="Path_23" d="M454.3 288.975l-.83-2.415h-.018l-.857 2.415zm-.083-4.037l2.461 6.581h-1.5l-.5-1.466h-2.461l-.516 1.466h-1.456l2.488-6.581z" data-name="Path 23"/>
        <path id="Path_24" d="M464.339 287.915a1.1 1.1 0 0 0 .747-.221.918.918 0 0 0 .249-.719.879.879 0 0 0-.249-.7 1.112 1.112 0 0 0-.747-.216h-1.585v1.852zm.517-2.977a2.12 2.12 0 0 1 .8.143 1.839 1.839 0 0 1 .609.392 1.715 1.715 0 0 1 .387.576 1.846 1.846 0 0 1 .133.7 1.983 1.983 0 0 1-.244 1 1.533 1.533 0 0 1-.8.645v.019a1.121 1.121 0 0 1 .442.226 1.25 1.25 0 0 1 .286.359 1.66 1.66 0 0 1 .161.457 3.856 3.856 0 0 1 .069.5l.019.369c.007.142.017.286.032.433a2.813 2.813 0 0 0 .074.419.941.941 0 0 0 .152.337h-1.447a2.567 2.567 0 0 1-.148-.747q-.027-.434-.083-.829a1.306 1.306 0 0 0-.313-.756 1.077 1.077 0 0 0-.784-.239h-1.447v2.571h-1.447v-6.581z" data-name="Path 24"/>
    </g>
</svg>
