<svg xmlns="http://www.w3.org/2000/svg" width="312" height="145.527" viewBox="0 0 312 145.527">
    <defs>
        <style>
            .cls-1{fill:#0000ca}
        </style>
    </defs>
    <g id="Artboard_14" data-name="Artboard 14" transform="translate(-1.86)">
        <path id="Path_72" d="M1.86 0l6.058 24.3 31.7-7.908L35.525 0" class="cls-1" data-name="Path 72"/>
        <path id="Path_73" d="M23.48 0l2.728 10.983L54.74 3.861" class="cls-1" data-name="Path 73" transform="translate(28.369)"/>
        <path id="Rectangle_134" d="M0 0h32.671v32.671H0z" class="cls-1" data-name="Rectangle 134" transform="rotate(-54 128.29 -7.604)"/>
        <path id="Rectangle_135" d="M0 0h29.388v29.388H0z" class="cls-1" data-name="Rectangle 135" transform="rotate(-54 105.653 -56.02)"/>
        <path id="Path_74" d="M67.756 1.28l21.133 15.376-15.353 21.133L52.38 22.436 67.756 1.28" class="cls-1" data-name="Path 74" transform="translate(66.291 1.68)"/>
        <path id="Rectangle_136" d="M0 0h32.671v32.671H0z" class="cls-1" data-name="Rectangle 136" transform="rotate(-4 1702.734 -2397.716)"/>
        <path id="Rectangle_137" d="M0 0h29.388v29.388H0z" class="cls-1" data-name="Rectangle 137" transform="rotate(-4 1054.291 -2398.513)"/>
        <path id="Rectangle_138" d="M0 0h26.191v26.191H0z" class="cls-1" data-name="Rectangle 138" transform="rotate(-4.004 405.61 -2402.94)"/>
        <path id="Rectangle_139" d="M0 0h32.671v32.671H0z" class="cls-1" data-name="Rectangle 139" transform="rotate(-44.03 236.084 -289.674)"/>
        <path id="Rectangle_140" d="M0 0h29.388v29.388H0z" class="cls-1" data-name="Rectangle 140" transform="rotate(-44.03 179.31 -269.116)"/>
        <path id="Path_75" d="M106.521 0L90.66 15.33l18.15 18.8 18.8-18.151L112.186 0" class="cls-1" data-name="Path 75" transform="translate(116.52)"/>
    </g>
</svg>
