<svg xmlns="http://www.w3.org/2000/svg" width="94.259" height="65.848" viewBox="0 0 94.259 65.848">
    <defs>
        <style>
            .cls-1{fill:#2b3fe9}
        </style>
    </defs>
    <g id="Group_2" data-name="Group 2" transform="translate(1445 -2877)">
        <path id="Path_99" d="M137.717 0l-2.825 1.258 2.739 6.153 6.311-2.81L141.894 0z" class="cls-1" data-name="Path 99" transform="translate(-1544.633 2877)"/>
        <path id="Path_100" d="M118.971 0l-1.522 3.026 7.694 3.635L128.493 0z" class="cls-1" data-name="Path 100" transform="translate(-1559.606 2877)"/>
        <path id="Path_101" d="M123.7 7.5l6.924 3.271L134.08 3.9 127.155.629z" class="cls-1" data-name="Path 101" transform="translate(-1554.241 2877.541)"/>
        <path id="Path_102" d="M129.949 9.845l3.074-6.107 6.153 2.906-3.076 6.107z" class="cls-1" data-name="Path 102" transform="translate(-1548.876 2880.209)"/>
        <path id="Path_103" d="M117.922 23.528l-2-8.184 8.363-2.122 2 8.184z" class="cls-1" data-name="Path 103" transform="translate(-1560.919 2888.35)"/>
        <path id="Path_104" d="M124.457 21.137l-1.8-7.365 7.526-1.912 1.8 7.367z" class="cls-1" data-name="Path 104" transform="translate(-1555.137 2887.181)"/>
        <path id="Path_105" d="M130.992 18.744l-1.6-6.547 6.69-1.7 1.6 6.547z" class="cls-1" data-name="Path 105" transform="translate(-1549.355 2886.012)"/>
        <path id="Path_106" d="M131.045 37.423l-6.91-4.9 5.12-6.887 6.909 4.9z" class="cls-1" data-name="Path 106" transform="translate(-1553.866 2899.002)"/>
        <path id="Path_107" d="M134.629 31.244l-6.218-4.414 4.607-6.2 6.218 4.416z" class="cls-1" data-name="Path 107" transform="translate(-1550.196 2894.71)"/>
        <path id="Path_108" d="M138.214 25.065l-5.527-3.923 4.094-5.51 5.529 3.923z" class="cls-1" data-name="Path 108" transform="translate(-1546.525 2890.418)"/>
        <path id="Path_109" d="M149.143 38.965l-8.584.669-.52-8.428 8.584-.669z" class="cls-1" data-name="Path 109" transform="translate(-1540.215 2903.214)"/>
        <path id="Path_110" d="M148.076 31.86l-7.725.6-.468-7.584 7.725-.6z" class="cls-1" data-name="Path 110" transform="translate(-1540.35 2897.838)"/>
        <path id="Path_111" d="M147.009 24.755l-6.867.535-.416-6.742 6.867-.535z" class="cls-1" data-name="Path 111" transform="translate(-1540.484 2892.462)"/>
        <path id="Path_112" d="M165.87 29.392l-6.24 5.93-5.916-6.022 6.24-5.932z" class="cls-1" data-name="Path 112" transform="translate(-1528.476 2897.057)"/>
        <path id="Path_113" d="M160.414 24.458l-5.614 5.337-5.322-5.423 5.616-5.337z" class="cls-1" data-name="Path 113" transform="translate(-1532.116 2893.34)"/>
        <path id="Path_114" d="M154.959 19.524l-4.994 4.744-4.731-4.821 4.992-4.744z" class="cls-1" data-name="Path 114" transform="translate(-1535.756 2889.622)"/>
        <path id="Path_115" d="M171.038 10.915l-.979 8.417-8.543-.8.979-8.417z" class="cls-1" data-name="Path 115" transform="translate(-1521.779 2885.679)"/>
        <path id="Path_116" d="M163.745 10.462l-.881 7.575-7.688-.723.881-7.577z" class="cls-1" data-name="Path 116" transform="translate(-1527.221 2885.359)"/>
        <path id="Path_117" d="M156.454 10.008l-.782 6.733-6.835-.643.782-6.733z" class="cls-1" data-name="Path 117" transform="translate(-1532.663 2885.04)"/>
        <path id="Path_118" d="M159.3 0l.914 1.344L162.226 0z" class="cls-1" data-name="Path 118" transform="translate(-1523.679 2877)"/>
        <path id="Path_119" d="M154.068 0l-2.042 1.364 4.269 6.27 6.456-4.315L160.489 0z" class="cls-1" data-name="Path 119" transform="translate(-1529.926 2877)"/>
        <path id="Path_120" d="M152.547 2.43L156.339 8l-5.739 3.838-3.793-5.571z" class="cls-1" data-name="Path 120" transform="translate(-1534.405 2879.087)"/>
        <path id="Path_121" d="M143.039 0l-1.323 4.406 6.6 1.8L150.176 0z" class="cls-1" data-name="Path 121" transform="translate(-1538.775 2877)"/>
    </g>
</svg>
