<svg xmlns="http://www.w3.org/2000/svg" width="201.161" height="202.514" viewBox="0 0 201.161 202.514">
    <defs>
        <style>
            .cls-1{fill:#fff}
        </style>
    </defs>
    <g id="Artboard_17" data-name="Artboard 17" transform="rotate(-9 96.199 131.52)">
        <path id="Rectangle_141" d="M0 0h18.467v18.467H0z" class="cls-1" data-name="Rectangle 141" transform="rotate(-24 59.45 -121.942)"/>
        <path id="Rectangle_142" d="M0 0h16.617v16.617H0z" class="cls-1" data-name="Rectangle 142" transform="rotate(-24 123.537 -137.83)"/>
        <path id="Rectangle_143" d="M0 0h14.768v14.768H0z" class="cls-1" data-name="Rectangle 143" transform="rotate(-24 187.484 -153.717)"/>
        <path id="Rectangle_144" d="M0 0h18.467v18.467H0z" class="cls-1" data-name="Rectangle 144" transform="rotate(-64 57.539 25.777)"/>
        <path id="Rectangle_145" d="M0 0h16.617v16.617H0z" class="cls-1" data-name="Rectangle 145" transform="rotate(-64 78.991 11.32)"/>
        <path id="Rectangle_146" d="M0 0h14.768v14.768H0z" class="cls-1" data-name="Rectangle 146" transform="rotate(-64 100.473 -3.107)"/>
        <path id="Rectangle_147" d="M0 0h18.467v18.467H0z" class="cls-1" data-name="Rectangle 147" transform="rotate(-14 481.567 44.583)"/>
        <path id="Rectangle_148" d="M0 0h16.617v16.617H0z" class="cls-1" data-name="Rectangle 148" transform="rotate(-14 471.631 -67.462)"/>
        <path id="Rectangle_149" d="M0 0h14.768v14.768H0z" class="cls-1" data-name="Rectangle 149" transform="rotate(-14.01 461.336 -179.53)"/>
        <path id="Rectangle_150" d="M0 0h18.467v18.467H0z" class="cls-1" data-name="Rectangle 150" transform="rotate(-54 193.99 53.273)"/>
        <path id="Rectangle_151" d="M0 0h16.617v16.617H0z" class="cls-1" data-name="Rectangle 151" transform="rotate(-54 181.203 25.884)"/>
        <path id="Rectangle_152" d="M0 0h14.768v14.768H0z" class="cls-1" data-name="Rectangle 152" transform="rotate(-54 168.4 -1.473)"/>
        <path id="Rectangle_153" d="M0 0h18.467v18.467H0z" class="cls-1" data-name="Rectangle 153" transform="rotate(-4 2711.094 -1344.19)"/>
        <path id="Rectangle_154" d="M0 0h16.617v16.617H0z" class="cls-1" data-name="Rectangle 154" transform="rotate(-4 2344.734 -1345.414)"/>
        <path id="Rectangle_155" d="M0 0h14.768v14.768H0z" class="cls-1" data-name="Rectangle 155" transform="rotate(-4 1978.371 -1345.349)"/>
        <path id="Rectangle_156" d="M0 0h18.467v18.467H0z" class="cls-1" data-name="Rectangle 156" transform="rotate(-44.03 286.116 -107.081)"/>
        <path id="Rectangle_157" d="M0 0h16.617v16.617H0z" class="cls-1" data-name="Rectangle 157" transform="rotate(-44.03 254.016 -95.463)"/>
        <path id="Rectangle_158" d="M0 0h14.727v14.727H0z" class="cls-1" data-name="Rectangle 158" transform="rotate(-43.78 223.512 -83.754)"/>
        <path id="Rectangle_159" d="M0 0h18.467v18.467H0z" class="cls-1" data-name="Rectangle 159" transform="rotate(-84 159.78 -42.667)"/>
        <path id="Rectangle_160" d="M0 0h16.617v16.617H0z" class="cls-1" data-name="Rectangle 160" transform="rotate(-84 145.08 -30.404)"/>
        <path id="Rectangle_161" d="M0 0h14.768v14.768H0z" class="cls-1" data-name="Rectangle 161" transform="rotate(-84 130.43 -18.128)"/>
        <path id="Rectangle_162" d="M0 0h18.467v18.467H0z" class="cls-1" data-name="Rectangle 162" transform="rotate(-34 163.767 -250.016)"/>
        <path id="Rectangle_163" d="M0 0h16.617v16.617H0z" class="cls-1" data-name="Rectangle 163" transform="rotate(-34 178.039 -208.647)"/>
        <path id="Rectangle_164" d="M0 0h14.768v14.768H0z" class="cls-1" data-name="Rectangle 164" transform="rotate(-34 192.358 -167.263)"/>
        <path id="Rectangle_165" d="M0 0h18.467v18.467H0z" class="cls-1" data-name="Rectangle 165" transform="rotate(-73.98 72.743 -68.343)"/>
        <path id="Rectangle_166" d="M0 0h16.617v16.617H0z" class="cls-1" data-name="Rectangle 166" transform="rotate(-74.01 86.123 -51.777)"/>
        <path id="Rectangle_167" d="M0 0h14.768v14.768H0z" class="cls-1" data-name="Rectangle 167" transform="rotate(-73.98 99.562 -35.311)"/>
    </g>
</svg>
