<svg xmlns="http://www.w3.org/2000/svg" width="116.091" height="115.69" viewBox="0 0 116.091 115.69">
    <defs>
        <style>
            .cls-1{fill:#0000ca}
        </style>
    </defs>
    <g id="Artboard_17" data-name="Artboard 17" transform="translate(-3.519 -2.675)">
        <path id="Rectangle_141" d="M0 0h10.598v10.598H0z" class="cls-1" data-name="Rectangle 141" transform="rotate(-24 37.547 -72.939)"/>
        <path id="Rectangle_142" d="M0 0h9.537v9.537H0z" class="cls-1" data-name="Rectangle 142" transform="rotate(-24 74.326 -82.056)"/>
        <path id="Rectangle_143" d="M0 0h8.475v8.475H0z" class="cls-1" data-name="Rectangle 143" transform="rotate(-24 111.026 -91.175)"/>
        <path id="Rectangle_144" d="M0 0h10.598v10.598H0z" class="cls-1" data-name="Rectangle 144" transform="rotate(-64 34.683 14.163)"/>
        <path id="Rectangle_145" d="M0 0h9.537v9.537H0z" class="cls-1" data-name="Rectangle 145" transform="rotate(-64 46.994 5.867)"/>
        <path id="Rectangle_146" d="M0 0h8.475v8.475H0z" class="cls-1" data-name="Rectangle 146" transform="rotate(-64 59.322 -2.413)"/>
        <path id="Rectangle_147" d="M0 0h10.598v10.598H0z" class="cls-1" data-name="Rectangle 147" transform="rotate(-14 281.758 20.05)"/>
        <path id="Rectangle_148" d="M0 0h9.537v9.537H0z" class="cls-1" data-name="Rectangle 148" transform="rotate(-14 276.054 -44.254)"/>
        <path id="Rectangle_149" d="M0 0h8.475v8.475H0z" class="cls-1" data-name="Rectangle 149" transform="rotate(-14.01 270.143 -108.563)"/>
        <path id="Rectangle_150" d="M0 0h10.598v10.598H0z" class="cls-1" data-name="Rectangle 150" transform="rotate(-54 113.197 29.671)"/>
        <path id="Rectangle_151" d="M0 0h9.537v9.537H0z" class="cls-1" data-name="Rectangle 151" transform="rotate(-54 105.858 13.953)"/>
        <path id="Rectangle_152" d="M0 0h8.475v8.475H0z" class="cls-1" data-name="Rectangle 152" transform="rotate(-54 98.512 -1.748)"/>
        <path id="Rectangle_153" d="M0 0h10.598v10.598H0z" class="cls-1" data-name="Rectangle 153" transform="rotate(-4 1572.93 -792.32)"/>
        <path id="Rectangle_154" d="M0 0h9.537v9.537H0z" class="cls-1" data-name="Rectangle 154" transform="rotate(-4 1362.68 -793.024)"/>
        <path id="Rectangle_155" d="M0 0h8.475v8.475H0z" class="cls-1" data-name="Rectangle 155" transform="rotate(-4 1152.433 -792.983)"/>
        <path id="Rectangle_156" d="M0 0h10.598v10.598H0z" class="cls-1" data-name="Rectangle 156" transform="rotate(-44.03 166.358 -62.737)"/>
        <path id="Rectangle_157" d="M0 0h9.537v9.537H0z" class="cls-1" data-name="Rectangle 157" transform="rotate(-44.03 147.936 -56.07)"/>
        <path id="Rectangle_158" d="M0 0h8.452v8.452H0z" class="cls-1" data-name="Rectangle 158" transform="rotate(-43.78 130.439 -49.361)"/>
        <path id="Rectangle_159" d="M0 0h10.598v10.598H0z" class="cls-1" data-name="Rectangle 159" transform="rotate(-84 93.078 -24.75)"/>
        <path id="Rectangle_160" d="M0 0h9.537v9.537H0z" class="cls-1" data-name="Rectangle 160" transform="rotate(-84 84.642 -17.712)"/>
        <path id="Rectangle_161" d="M0 0h8.475v8.475H0z" class="cls-1" data-name="Rectangle 161" transform="rotate(-84 76.234 -10.667)"/>
        <path id="Rectangle_162" d="M0 0h10.598v10.598H0z" class="cls-1" data-name="Rectangle 162" transform="rotate(-34 96.6 -145.364)"/>
        <path id="Rectangle_163" d="M0 0h9.537v9.537H0z" class="cls-1" data-name="Rectangle 163" transform="rotate(-34 104.788 -121.623)"/>
        <path id="Rectangle_164" d="M0 0h8.475v8.475H0z" class="cls-1" data-name="Rectangle 164" transform="rotate(-34 113.006 -97.873)"/>
        <path id="Rectangle_165" d="M0 0h10.598v10.598H0z" class="cls-1" data-name="Rectangle 165" transform="rotate(-73.98 43.253 -39.647)"/>
        <path id="Rectangle_166" d="M0 0h9.537v9.537H0z" class="cls-1" data-name="Rectangle 166" transform="rotate(-74.01 50.93 -30.14)"/>
        <path id="Rectangle_167" d="M0 0h8.475v8.475H0z" class="cls-1" data-name="Rectangle 167" transform="rotate(-73.98 58.644 -20.69)"/>
    </g>
</svg>
