<svg xmlns="http://www.w3.org/2000/svg" width="215.873" height="128.813" viewBox="0 0 215.873 128.813">
    <defs>
        <style>
            .cls-1{fill:#000053}
        </style>
    </defs>
    <g id="Group_6" data-name="Group 6" transform="translate(925.749 -3347.551)">
        <g id="Group_4" data-name="Group 4" transform="translate(-925.749 3347.551)">
            <path id="Rectangle_190" d="M0 0h20.389v19.88H0z" class="cls-1" data-name="Rectangle 190" transform="rotate(-24 54.824 -112.938)"/>
            <path id="Rectangle_191" d="M0 0h18.351v17.892H0z" class="cls-1" data-name="Rectangle 191" transform="rotate(-24.001 123.747 -130.088)"/>
            <path id="Rectangle_192" d="M0 0h16.312v15.903H0z" class="cls-1" data-name="Rectangle 192" transform="rotate(-23.996 192.703 -147.284)"/>
            <path id="Path_122" d="M635.17 512.076l9.071-18.027 18.168 8.582-9.071 18.027z" class="cls-1" data-name="Path 122" transform="translate(-635.17 -442.264)"/>
            <path id="Path_123" d="M647.616 516.464l8.163-16.224 16.352 7.724-8.165 16.224z" class="cls-1" data-name="Path 123" transform="translate(-620.188 -434.811)"/>
            <path id="Path_124" d="M660.062 520.853l7.257-14.422 14.534 6.865-7.253 14.422z" class="cls-1" data-name="Path 124" transform="translate(-605.205 -427.358)"/>
            <path id="Path_125" d="M745.407 521.019L743.1 540.9l-20.179-1.9 2.312-19.876z" class="cls-1" data-name="Path 125" transform="translate(-529.534 -412.083)"/>
            <path id="Path_126" d="M711.2 519.176h8.571l-8.478-.8z" class="cls-1" data-name="Path 126" transform="translate(-543.646 -412.976)"/>
            <path id="Path_127" d="M698.383 520.069H714.7l.108-.915-16.141-1.518z" class="cls-1" data-name="Path 127" transform="translate(-559.074 -413.869)"/>
            <path id="Path_128" d="M731.353 487.826l11.2 16.445-16.939 11.321-11.2-16.445z" class="cls-1" data-name="Path 128" transform="translate(-539.777 -449.755)"/>
            <path id="Path_129" d="M719.269 495.827l10.078 14.8-15.247 10.189-10.078-14.8z" class="cls-1" data-name="Path 129" transform="translate(-552.285 -440.124)"/>
            <path id="Path_130" d="M707.185 503.827l8.958 13.157-13.551 9.055-8.958-13.154z" class="cls-1" data-name="Path 130" transform="translate(-564.792 -430.493)"/>
            <path id="Path_131" d="M695.652 470.551l19.466 5.32-5.778 19.244-19.466-5.32z" class="cls-1" data-name="Path 131" transform="translate(-569.317 -470.551)"/>
            <path id="Path_132" d="M691.885 483.637l17.52 4.789-5.2 17.32-17.52-4.789z" class="cls-1" data-name="Path 132" transform="translate(-573.157 -454.798)"/>
            <path id="Path_133" d="M688.118 496.722l15.574 4.258-4.624 15.394-15.574-4.255z" class="cls-1" data-name="Path 133" transform="translate(-576.997 -439.046)"/>
        </g>
    </g>
</svg>
